<?xml version="1.0" encoding="UTF-8"?><svg id="Layer_1" xmlns="http://www.w3.org/2000/svg" viewBox="0 0 260 260"><defs><style>.cls-1{}.cls-2{fill:#fff;}</style></defs><path class="cls-1" d="m44.67,46.01h141.26c5.52,0,10,4.48,10,10v106.47c0,44.5-36.13,80.63-80.63,80.63h0c-44.5,0-80.63-36.13-80.63-80.63V56.01c0-5.52,4.48-10,10-10Z" transform="translate(135.99 -39.19) rotate(45)"/><rect class="cls-2" x="80" y="90" width="40" height="40" rx="4" ry="4" transform="translate(200 220) rotate(180)"/><rect class="cls-2" x="128" y="90" width="40" height="40" rx="4" ry="4" transform="translate(296 220) rotate(180)"/><rect class="cls-2" x="80" y="138" width="40" height="40" rx="4" ry="4" transform="translate(200 316) rotate(180)"/><rect class="cls-2" x="128" y="138" width="40" height="40" rx="4" ry="4" transform="translate(296 316) rotate(180)"/></svg>